<svg width="256" height="256" viewBox="0 0 256 256" fill="none" xmlns="http://www.w3.org/2000/svg">
<rect width="256" height="256" rx="56" fill="#FFB0AD"/>
<g filter="url(#filter0_g_1655_271)">
<path d="M156.888 27.5002C177.931 27.5003 190.489 43.6764 190.489 66.407C190.489 77.5376 191.567 88.1754 188.195 96.1347C201.422 105.53 209.46 118.366 209.46 133.61C209.46 166.568 197.884 188.272 125.537 188.272C53.1898 188.272 41.6143 165.121 41.6143 133.61C41.6143 118.088 50.7303 104.595 65.5209 94.8981C62.225 87.7264 62.193 78.5142 62.193 68.497C62.193 45.7663 79.4131 27.5002 100.457 27.5002C112.667 27.5003 122.02 32.9472 127.721 41.9603C134.754 33.1015 145.235 27.5002 156.888 27.5002Z" fill="white"/>
<path d="M102.95 142.664C112.294 144.921 111.316 126.416 106.61 124.868C101.904 123.32 98.367 126.535 98.0452 130.716C97.7234 134.896 97.686 140.593 102.95 142.664Z" fill="#BF6446"/>
<path d="M147.128 142.155C149.894 142.687 152.296 141.204 153.147 138.598C154.624 134.073 154.653 127.317 149.412 125.378C146.551 124.815 144.266 126.055 143.363 128.889C141.882 133.535 141.613 140.135 147.128 142.155Z" fill="#BF6446"/>
<path d="M125.765 147.446C123.619 147.309 121.853 145.956 121.52 143.832C121.188 141.708 122.163 139.549 126.933 139.566C129.657 139.576 133.101 141.255 132.218 143.832C131.465 146.028 129.066 147.659 125.765 147.446Z" fill="#FFB0AD"/>
<path fill-rule="evenodd" clip-rule="evenodd" d="M72.892 141.843C72.892 141.843 72.892 141.843 72.892 141.843V141.843Z" fill="#FFB0AD" fill-opacity="0.2"/>
<path fill-rule="evenodd" clip-rule="evenodd" d="M67.7492 172.612C71.5308 174.476 78.0054 174.949 82.2301 173.869C86.4863 172.92 91.5372 169.774 94.0653 166.4C94.5677 165.728 95.0583 165.036 95.5064 164.327C98.7125 159.124 100.75 152.676 99.2227 146.592C96.8564 135.222 82.2716 130.298 75.6517 141.084C75.6192 141.153 75.5868 141.221 75.5545 141.29C75.4285 141.556 75.29 141.807 75.1521 142.058C74.9458 142.433 74.7406 142.805 74.5805 143.221C74.0286 142.724 73.4725 142.293 72.892 141.843C72.8323 141.797 72.7712 141.75 72.7109 141.703C61.9262 135.081 51.1491 146.073 54.1852 157.283C55.5773 163.399 60.3122 168.227 65.526 171.415C66.2467 171.845 66.9974 172.24 67.7492 172.612Z" fill="#FFB0AD" fill-opacity="0.2"/>
<path fill-rule="evenodd" clip-rule="evenodd" d="M181.565 141.522C181.565 141.522 181.565 141.522 181.565 141.522V141.522Z" fill="#FFB0AD" fill-opacity="0.2"/>
<path fill-rule="evenodd" clip-rule="evenodd" d="M186.707 172.29C182.926 174.155 176.451 174.627 172.226 173.547C167.97 172.598 162.919 169.453 160.391 166.078C159.889 165.407 159.398 164.715 158.95 164.005C155.744 158.802 153.707 152.355 155.234 146.27C157.6 134.9 172.185 129.976 178.805 140.762C178.837 140.831 178.87 140.9 178.902 140.968C179.028 141.234 179.166 141.486 179.304 141.736C179.511 142.111 179.716 142.484 179.876 142.9C180.428 142.402 180.984 141.972 181.565 141.522C181.624 141.476 181.685 141.428 181.746 141.382C192.53 134.76 203.307 145.751 200.271 156.961C198.879 163.078 194.144 167.905 188.931 171.094C188.21 171.524 187.459 171.919 186.707 172.29Z" fill="#FFB0AD" fill-opacity="0.2"/>
<g filter="url(#filter1_n_1655_271)">
<path d="M190.433 71.6331C192.339 71.1158 193.717 70.8042 195.696 70.6356C196.17 70.5952 198.716 70.4649 198.973 70.4009L199.048 70.2656L199.155 70.3675C201.202 70.4347 205.516 70.9617 207.218 71.9444C211.438 74.3805 208.912 79.0201 206.12 81.3588C205.767 81.6548 205.022 82.1747 204.613 82.313C204.854 83.1427 205.177 83.8691 205.417 84.6601C205.858 86.1101 205.88 87.8336 205.827 89.3366C205.822 89.4701 205.814 89.4158 205.869 89.5397C205.361 91.9941 205.039 93.0694 203.927 95.2999C203.244 96.2009 202.861 96.8965 202.083 97.8015C197.022 102.872 190.971 105.843 183.694 105.955C179.594 106.019 176.555 104.157 173.504 101.606C172.898 101.099 172.297 100.569 171.732 100.014C167.661 95.9283 164.387 90.4383 164.452 84.4974C164.128 73.5024 176.391 65.7529 184.806 74.2292C185.288 74.8336 185.747 75.3996 186.184 76.0394L186.724 75.7043C186.753 73.3017 188.411 72.2494 190.433 71.6331Z" fill="url(#paint0_linear_1655_271)"/>
</g>
<path d="M190.356 71.6525C192.27 71.1279 193.653 70.8119 195.64 70.6409C196.116 70.5999 198.672 70.4677 198.93 70.4028L199.006 70.2656L199.113 70.3689C201.169 70.4371 205.5 70.9716 207.209 71.9682C211.446 74.439 208.909 79.1446 206.107 81.5165C205.752 81.8168 205.004 82.3441 204.593 82.4843C204.544 82.2045 204.034 81.498 203.874 81.2514C202.602 79.2951 201.198 78.0048 199.195 76.7903C195.995 74.8505 191.95 74.4397 188.357 75.3396C187.78 75.4841 187.207 75.6319 186.632 75.7817C186.661 73.3449 188.326 72.2777 190.356 71.6525Z" fill="#84CC75"/>
<path d="M186.355 76.7131C186.668 76.7019 187.478 76.6378 187.64 76.8653C189.84 79.9397 189.622 87.0081 187.599 89.734C187.216 89.9105 186.731 89.9515 186.357 89.7156C185.747 89.3168 186.043 88.6227 186.207 88.0787C186.514 87.0589 186.828 86.0712 186.978 85.0178C187.25 83.2828 187.043 81.6569 186.617 79.9695C186.343 78.8804 185.526 77.6421 186.355 76.7131Z" fill="#DD8094"/>
<path d="M185.025 74.2599C185.622 71.51 186.224 68.7972 187.153 66.1299C187.614 64.8077 188.442 63.6072 190.037 63.8715C190.786 63.9957 191.353 64.2756 191.75 64.9556C191.99 65.3652 192.111 65.8341 192.098 66.3089C192.077 67.0596 190.889 70.6398 190.604 71.6878C188.599 72.2985 186.955 73.3411 186.927 75.7214L186.391 76.0534C185.958 75.4195 185.502 74.8588 185.025 74.2599Z" fill="#DD8094"/>
<circle cx="126.825" cy="195.346" r="32.1543" fill="#FCE278"/>
<path d="M127.468 178.947V213.031" stroke="white" stroke-width="4.82315" stroke-linecap="round" stroke-linejoin="round"/>
<path d="M135.239 185.057H123.583C122.14 185.057 120.757 185.633 119.737 186.658C118.717 187.683 118.144 189.073 118.144 190.523C118.144 191.973 118.717 193.363 119.737 194.388C120.757 195.413 122.14 195.989 123.583 195.989H131.354C132.796 195.989 134.18 196.565 135.2 197.59C136.22 198.615 136.793 200.006 136.793 201.455C136.793 202.905 136.22 204.295 135.2 205.321C134.18 206.346 132.796 206.922 131.354 206.922H118.144" stroke="white" stroke-width="4.82315" stroke-linecap="round" stroke-linejoin="round"/>
<path d="M67.9013 210.136C48.9373 206.106 35.0852 195.836 39.7635 178.563C44.4417 161.291 62.2646 165.835 79.3503 170.4C96.4361 174.965 104.597 185.849 102.93 197.872C101.264 209.895 91.3949 216.499 67.9013 210.136Z" fill="white"/>
<path d="M186.917 210.165C205.989 206.118 219.925 195.834 215.234 178.563C210.543 161.293 192.619 165.854 175.436 170.435C158.252 175.016 150.038 185.909 151.705 197.932C153.371 209.955 163.29 216.55 186.917 210.165Z" fill="white"/>
</g>
<defs>
<filter id="filter0_g_1655_271" x="37.5625" y="26.2141" width="179.873" height="202.572" filterUnits="userSpaceOnUse" color-interpolation-filters="sRGB">
<feFlood flood-opacity="0" result="BackgroundImageFix"/>
<feBlend mode="normal" in="SourceGraphic" in2="BackgroundImageFix" result="shape"/>
<feTurbulence type="fractalNoise" baseFrequency="0.062200002372264862 0.062200002372264862" numOctaves="3" seed="6974" />
<feDisplacementMap in="shape" scale="2.5723471641540527" xChannelSelector="R" yChannelSelector="G" result="displacedImage" width="100%" height="100%" />
<feMerge result="effect1_texture_1655_271">
<feMergeNode in="displacedImage"/>
</feMerge>
</filter>
<filter id="filter1_n_1655_271" x="164.446" y="70.2656" width="45.0161" height="35.6914" filterUnits="userSpaceOnUse" color-interpolation-filters="sRGB">
<feFlood flood-opacity="0" result="BackgroundImageFix"/>
<feBlend mode="normal" in="SourceGraphic" in2="BackgroundImageFix" result="shape"/>
<feTurbulence type="fractalNoise" baseFrequency="2.0733335018157959 2.0733335018157959" stitchTiles="stitch" numOctaves="3" result="noise" seed="8212" />
<feColorMatrix in="noise" type="luminanceToAlpha" result="alphaNoise" />
<feComponentTransfer in="alphaNoise" result="coloredNoise1">
<feFuncA type="discrete" tableValues="1 1 1 1 1 1 1 1 1 1 1 1 1 1 1 1 1 1 1 1 1 1 1 1 1 1 1 1 1 1 1 1 1 1 1 1 1 1 1 1 1 1 1 1 1 1 1 1 1 1 1 0 0 0 0 0 0 0 0 0 0 0 0 0 0 0 0 0 0 0 0 0 0 0 0 0 0 0 0 0 0 0 0 0 0 0 0 0 0 0 0 0 0 0 0 0 0 0 0 0 "/>
</feComponentTransfer>
<feComposite operator="in" in2="shape" in="coloredNoise1" result="noise1Clipped" />
<feFlood flood-color="rgba(255, 255, 255, 0.2)" result="color1Flood" />
<feComposite operator="in" in2="noise1Clipped" in="color1Flood" result="color1" />
<feMerge result="effect1_noise_1655_271">
<feMergeNode in="shape" />
<feMergeNode in="color1" />
</feMerge>
</filter>
<linearGradient id="paint0_linear_1655_271" x1="189.229" y1="77.3141" x2="184.23" y2="102.087" gradientUnits="userSpaceOnUse">
<stop stop-color="#FD9DB0"/>
<stop offset="1" stop-color="#FFE0E3"/>
</linearGradient>
</defs>
</svg>
